<?xml version="1.0" encoding="UTF-8" standalone="no"?>
<svg
   version="1.1"
   viewBox="0 0 48 48"
   id="svg42"
   sodipodi:docname="tugaa.svg"
   xml:space="preserve"
   inkscape:export-filename="tugaa-48px.png"
   inkscape:export-xdpi="96"
   inkscape:export-ydpi="96"
   inkscape:version="1.2.2 (b0a8486541, 2022-12-01)"
   xmlns:inkscape="http://www.inkscape.org/namespaces/inkscape"
   xmlns:sodipodi="http://sodipodi.sourceforge.net/DTD/sodipodi-0.dtd"
   xmlns:xlink="http://www.w3.org/1999/xlink"
   xmlns="http://www.w3.org/2000/svg"
   xmlns:svg="http://www.w3.org/2000/svg"><sodipodi:namedview
     id="namedview44"
     pagecolor="#ffffff"
     bordercolor="#000000"
     borderopacity="0.25"
     inkscape:showpageshadow="2"
     inkscape:pageopacity="0.0"
     inkscape:pagecheckerboard="0"
     inkscape:deskcolor="#d1d1d1"
     showgrid="false"
     inkscape:zoom="15.479167"
     inkscape:cx="25.227456"
     inkscape:cy="21.965006"
     inkscape:window-width="1920"
     inkscape:window-height="1080"
     inkscape:window-x="3840"
     inkscape:window-y="0"
     inkscape:window-maximized="1"
     inkscape:current-layer="svg42" /><defs
     id="defs17"><linearGradient
       inkscape:collect="always"
       id="linearGradient1209"><stop
         style="stop-color:#214ba4;stop-opacity:1;"
         offset="0"
         id="stop1205" /><stop
         style="stop-color:#153f81;stop-opacity:1;"
         offset="1"
         id="stop1207" /></linearGradient><linearGradient
       id="linearGradient862"
       x1="370.22"
       x2="370.03"
       y1="509.64"
       y2="479.76"
       gradientTransform="matrix(1.4,0,0,1.4,-494.1,-668.67)"
       gradientUnits="userSpaceOnUse"><stop
         stop-color="#197cf1"
         offset="0"
         id="stop2" /><stop
         stop-color="#21c9fb"
         offset="1"
         id="stop4" /></linearGradient><linearGradient
       id="c"
       x2="0"
       y1="532.79"
       y2="514.8"
       gradientTransform="matrix(1.7778 0 0 1.7778 -703.31 -908.76)"
       gradientUnits="userSpaceOnUse"><stop
         stop-color="#7cbaf8"
         offset="0"
         id="stop7" /><stop
         stop-color="#f4fcff"
         offset="1"
         id="stop9" /></linearGradient><linearGradient
       id="b"
       x1="25.793"
       x2="41.606"
       y1="26.896"
       y2="43.624"
       gradientTransform="translate(-5.029,-7.08)"
       gradientUnits="userSpaceOnUse"><stop
         stop-color="#292c2f"
         offset="0"
         id="stop12" /><stop
         stop-color="#292c2f"
         stop-opacity="0"
         offset="1"
         id="stop14" /></linearGradient><radialGradient
       inkscape:collect="always"
       xlink:href="#linearGradient1209"
       id="radialGradient1211"
       cx="24.258411"
       cy="24.129194"
       fx="24.258411"
       fy="24.129194"
       r="21"
       gradientUnits="userSpaceOnUse"
       gradientTransform="rotate(4.0484106,24.257812,24.128906)" /></defs><path
     style="fill:#f2f2f2;fill-opacity:1;stroke:none;stroke-width:9.28033;stroke-dasharray:none;stroke-opacity:1"
     id="path13378"
     sodipodi:type="arc"
     sodipodi:cx="24.227436"
     sodipodi:cy="24.033375"
     sodipodi:rx="20.965227"
     sodipodi:ry="21"
     sodipodi:start="0.73181656"
     sodipodi:end="6.2766077"
     sodipodi:arc-type="arc"
     d="M 39.824763,38.066041 A 20.965227,21 0 0 1 13.318945,41.966857 20.965227,21 0 0 1 4.6255601,16.584159 20.965227,21 0 0 1 27.940003,3.3652572 20.965227,21 0 0 1 45.19221,23.895246"
     sodipodi:open="true" /><path
     id="circle19"
     style="fill:url(#radialGradient1211);fill-opacity:1"
     d="M 25.740398,3.1813063 A 21,21 0 0 0 3.3102126,22.64632 a 21,21 0 0 0 -0.0023,0.530459 L 36.146086,6.8215084 A 21,21 0 0 0 25.740398,3.1813063 Z M 38.46504,8.6656077 3.3902656,26.135288 a 21,21 0 0 0 0.1350835,0.802554 L 39.020372,9.2570708 A 21,21 0 0 0 38.46504,8.6656077 Z M 40.874285,11.336503 4.072604,29.662966 a 21,21 0 0 0 0.2480287,0.728312 L 41.30343,11.967986 A 21,21 0 0 0 40.874285,11.336503 Z M 42.727077,14.261718 19.09489,26.03283 16.049061,43.366909 a 21,21 0 0 0 6.726165,1.709597 21,21 0 0 0 22.430186,-19.465014 21,21 0 0 0 -2.478335,-11.349774 z m -26.621651,13.259084 -1.359794,0.677173 -2.307285,13.12376 a 21,21 0 0 0 1.109413,0.75795 z m -4.349394,2.167093 -1.073647,0.534911 -1.4642052,8.321689 a 21,21 0 0 0 0.8274192,0.869178 z m -4.063247,2.02483 -2.4008903,1.194808 a 21,21 0 0 0 1.6830011,2.889701 z" /><text
     xml:space="preserve"
     style="font-size:23.7681px;font-family:'Droid Sans';-inkscape-font-specification:'Droid Sans, Normal';fill:#ffffff;fill-opacity:1;stroke:none;stroke-width:1.47086;stroke-dasharray:none;stroke-opacity:1"
     x="23.680193"
     y="35.637253"
     id="text13231"><tspan
       sodipodi:role="line"
       id="tspan13229"
       x="23.680193"
       y="35.637253"
       style="stroke-width:1.47086">g</tspan></text></svg>
